<svg xmlns="http://www.w3.org/2000/svg" width="80" height="80" viewBox="0 0 80 80" role="img" aria-label="×× Logo">
  <defs>
    <linearGradient id="g" x1="0%" y1="0%" x2="100%" y2="100%">
      <stop offset="0%" style="stop-color:#1677ff;stop-opacity:1" />
      <stop offset="100%" style="stop-color:#0958d9;stop-opacity:1" />
    </linearGradient>
  </defs>
  <rect width="80" height="80" rx="18" fill="url(#g)" />
  <path fill="#fff" fill-opacity="0.95" d="M40 18c-6 8-16 14-16 24 0 9 7 16 16 16s16-7 16-16c0-10-10-16-16-24zm0 34c-5.5 0-10-4.5-10-10 0-6 5.5-11 10-15 4.5 4 10 9 10 15 0 5.5-4.5 10-10 10z" />
  <circle cx="40" cy="40" r="4" fill="#fff" />
</svg>
